<svg width="1253" height="43" viewBox="0 0 1253 43" fill="none" xmlns="http://www.w3.org/2000/svg">
<path d="M1.93701 7.50049C49.4103 19.216 74.6217 38.8707 123.5 37.5C168.159 36.2476 188.952 6.80575 233.628 6.52207C279.336 6.23184 300.791 37.2335 346.5 37.5C392.982 37.771 415.021 6.71423 461.503 6.81636C507.606 6.91766 529.402 36.7978 575.5 37.5C625.124 38.2559 648.963 7.16688 698.575 5.82993C754.01 4.33606 781.545 37.6774 837 37.5C892.046 37.3239 919.21 5.55039 974.256 5.41954C1029.87 5.28735 1057.39 37.736 1113 37.5C1167.96 37.2668 1200.73 29.492 1249.94 5.00916" stroke="black" stroke-width="10"/>
</svg>
