<svg xmlns="http://www.w3.org/2000/svg" width="819" height="800" viewBox="0 0 819 800">
  <defs>
    <style>
      .cls-1 {
        fill: #fff;
        fill-rule: evenodd;
      }
    </style>
  </defs>
  <path id="Preenchimento_de_Cor_1" data-name="Preenchimento de Cor 1" class="cls-1" d="M416,0c98.4-1.185,163,61.453,163,158,0,29.448-3.789,52.885-15,72-17.507,29.85-38.84,56.242-61,82-12.021,13.973-32.757,25.745-34,47q6,12.5,12,25h1c9.182-20.179,26.726-37.248,39-55,31.248-45.195,62.732-88.77,93-133,13.139-19.2,25.692-35.3,40-56,12.549-18.151,50.2-72.173,61-86,24.244,17.434,41.208,29.07,62,43,13.42,8.991,31.316,21.21,42,28-10.731,18.474-16.1,27.5-24,39-20.809,30.305-39.96,57.649-60,86-67.361,95.3-131.111,188.9-198,286,1.507,11.239,7.442,21.592,10,31,6.021,22.142,11.632,42.223,14,63a173.613,173.613,0,0,1,1,33c1.676,61.033-25.519,92.76-64,116-20.4,12.322-38.459,21.019-73,21H408c-35.251-8.087-66.793-22.283-84-53-44.1-78.729,19.472-179.473,61-223-4.122-15.139-7.339-33.749-15-46-1.333,1-.594.188-4,4-8.976,12.042-48.283,61.515-58,72-0.667-.333-1.333,1.333-2,1-11.308-19.061-51.459-65.973-68.275-89.656C213.543,431.286,190.207,401.076,163,365c-14.582-19.336-58.044-81.646-87-123-18.484-26.4-39.107-51.88-58-79-5.9-8.475-10.162-13.485-18-25,23.785-18.26,58.646-43.3,86-64,8.964-6.782,14.734-11,25-19,33.243,44.789,65.982,91.637,100,137,16.354,21.809,33.493,44.265,48,65,10.211,14.6,46.478,59.969,55,72a1.224,1.224,0,0,0,1-1c-5.444-25.155-18.069-66.418-27-88-6.581-15.9-8.322-26.649-14-42-4.427-11.969-9.69-38.92-8-63,2.091-29.787,17.65-51.679,32-74,11.809-18.368,39.919-39.217,61-48C364.491,10.712,412.312-.654,416,0Zm8,27c-17.64,2.04-28.844,11.342-37,26-29.288,52.639,16.194,135.091,35,168,10.892-7.19,22.923-21.921,30-31,11.305-14.5,20.028-32.461,27-51C499.205,85.27,489.232,24.047,424,27Zm17,635c-12.681,12.843-86.87,112.7-9,111,16.68-1.227,25.111-15.74,26-24C459.939,730.978,448.855,672.82,441,662Z"/>
</svg>
