<svg xmlns="http://www.w3.org/2000/svg" width="3333" height="3333" viewBox="0 0 3333 3333">
  <defs>
    <style>
      .cls-1 {
        fill-rule: evenodd;
      }
    </style>
  </defs>
  <path id="Preenchimento_de_Cor_1" data-name="Preenchimento de Cor 1" class="cls-1" d="M1617,833c498.41-5.423,824.78,167.18,1113,373,49.94,35.66,94.6,78.05,142,116,75.04,60.08,157.88,141.11,218,216,33.98,42.33,77.63,80.71,105,129q-33.495,42.99-67,86-47.49,52.995-95,106-26.49,25.995-53,52c-50.61,50.61-103.11,99.71-160,144-46.18,35.96-91.62,73.88-140,108-161.59,113.96-340.49,203.23-551,269-201.72,63.03-513.72,95.28-755,42-142.05-31.37-267.93-68.96-387-121-189.892-82.99-346.275-197.84-498-318-49.421-39.14-94.708-82.71-139-127q-25-24.495-50-49l-95-106q-33.5-42.99-67-86v-1q33.5-42.99,67-86l95-106q25-24.495,50-49c44.292-44.29,89.565-87.88,139-127,50.867-40.25,100.367-83.14,154-121,135.91-95.94,284.954-175.87,452-241,100.31-39.111,208.92-61.987,326-85l135-15Z"/>
</svg>
