<svg xmlns="http://www.w3.org/2000/svg" width="1457" height="1455" viewBox="0 0 1457 1455">
  <defs>
    <style>
      .cls-1 {
        fill: #fff;
        fill-rule: evenodd;
      }
    </style>
  </defs>
  <path id="Preenchimento_de_Cor_1" data-name="Preenchimento de Cor 1" class="cls-1" d="M773,62q3,77.993,6,156,3,49.5,6,99c11.441,70.382,12.924,140.85,30,202,6.762,24.217,30.876,108.235,50,112,67.62-31.9,121.275-77.254,177-121q36.495-31,73-62-26.49,31-53,62c-35.08,44.328-70.336,87.008-101,136-10.264,16.4-25.453,34.987-30,56,19.387,9.42,37.951,21.6,59,30,40.73,16.247,87.4,23.5,135,33l150,15,227,10-134,5-76,4-70,4c-67.44,10.883-134.14,13.078-193,31-36.677,11.168-66.423,29.705-98,43,4.434,20.966,19.76,39.687,30,56,30.762,49.007,66.05,91.51,101,136q26.49,30.99,53,62-27.495-23.505-55-47c-42.4-33.57-83.236-67.56-129-98-18.481-12.294-44.55-35.51-70-38-44.73,73.92-53.3,153.52-71,257q-4.5,58.995-9,118-4,96.99-8,194-3.5-86.49-7-173l-4-80c-10.559-66.09-12.19-132.71-27-191-9.745-38.35-24.887-103.587-50-125-26.442,3.813-52.345,26.885-72,40-42.1,28.09-79.918,59.08-119,90q-31,26.49-62,53,3.5-4.005,7-8,25-29.49,50-59c30.957-39.39,61.855-77.515,90-120,7.369-11.124,39.476-56.179,34-69l-37-20-69-24c-63.085-18.925-135.135-18.209-207-30L45,789l194-8,108-7c104.136-17.2,195.939-26.085,268-72-2.614-26.548-27.131-53.721-40-73-29.8-44.639-63.2-84.556-96-126l-47-55,56,48c41.1,32.536,80.652,65.472,125,95,19.467,12.962,45.973,37.411,73,40C762.008,505.445,772.834,262.507,773,62Z" transform="translate(-45 -62)"/>
</svg>
