<!DOCTYPE svg PUBLIC "-//W3C//DTD SVG 1.1//EN" "http://www.w3.org/Graphics/SVG/1.1/DTD/svg11.dtd">
<!-- Uploaded to: SVG Repo, www.svgrepo.com, Transformed by: SVG Repo Mixer Tools -->
<svg version="1.1" id="Uploaded to svgrepo.com" xmlns="http://www.w3.org/2000/svg" xmlns:xlink="http://www.w3.org/1999/xlink" width="800px" height="800px" viewBox="0 0 32 32" xml:space="preserve" fill="#000000">
<g id="SVGRepo_bgCarrier" stroke-width="0"/>
<g id="SVGRepo_tracerCarrier" stroke-linecap="round" stroke-linejoin="round"/>
<g id="SVGRepo_iconCarrier"> <style type="text/css"> .sharpcorners_een{fill:#ffffff;} .st0{fill:#ffffff;} </style> <path class="sharpcorners_een" d="M18,13h-4V2h4V13z M26,11h-4v10h4V11z M26,27h-4v3h4V27z M26,2h-4v3h4V2z M18,19h-4v11h4V19z M21,14H11v4h10V14z M30,22H19v4h11V22z M30,6H19v4h11V6z M10,11H6v10h4V11z M10,27H6v3h4V27z M10,2H6v3h4V2z M13,22H2v4h11V22z M13,6H2v4h11V6z M5,14H2v4h3V14z M30,14h-3v4h3V14z"/> </g>
</svg>